<?xml version="1.0" encoding="UTF-8" standalone="no"?>
<!-- Created with Inkscape (http://www.inkscape.org/) -->
<svg xmlns:inkscape="http://www.inkscape.org/namespaces/inkscape" xmlns:sodipodi="http://sodipodi.sourceforge.net/DTD/sodipodi-0.dtd" xmlns="http://www.w3.org/2000/svg" xmlns:svg="http://www.w3.org/2000/svg" width="256" height="256" viewBox="0 0 67.733332 67.733332" version="1.1" id="svg5" inkscape:version="1.2 (dc2aeda, 2022-05-15)" sodipodi:docname="favicon_ideo_vector.svg">
  <defs id="defs2"/>
  <g inkscape:label="Calque 1" inkscape:groupmode="layer" id="layer1">
    <path id="path739" style="stroke-width:6.88115;stroke-linecap:round;stroke-linejoin:round" d="M 60.794243,34.842395 C 63.437079,50.214544 54.031774,64.661458 39.786911,67.110487 25.542048,69.559515 11.851864,59.083258 9.2090281,43.711111 6.5661949,28.338965 14.137752,3.2260035 28.382615,0.77697543 42.627477,-1.6720521 58.151407,19.47025 60.794243,34.842395 Z" sodipodi:nodetypes="sssss"/>
  </g>
  <g inkscape:groupmode="layer" id="layer2" inkscape:label="type" transform="translate(13.142359,7.6467492)">
    <g aria-label="i" id="text1103" style="font-style:italic;font-size:67.4216px;line-height:125%;font-family:'Charis SIL';-inkscape-font-specification:'Charis SIL, Italic';letter-spacing:0px;word-spacing:0px;opacity:1;fill:#ffffff;stroke-width:0.537939px">
      <path d="m 26.998063,47.095181 q -0.395048,0.164603 -1.448511,0.625493 -1.053462,0.46089 -2.469052,0.954701 -1.415591,0.460889 -2.995784,0.823017 -1.547273,0.362128 -2.929943,0.362128 -1.744797,0 -2.765339,-0.592573 -1.020542,-0.592572 -1.514352,-1.547273 -0.493811,-0.9547 -0.559652,-2.139846 -0.06584,-1.185145 0.164603,-2.337369 L 16.792645,20.39649 10.998601,19.770997 v -1.942321 l 10.172498,-2.106925 h 2.765339 l -5.102709,26.962056 q -0.131683,0.691334 0,1.316828 0.164603,0.625493 0.49381,1.119304 0.362128,0.460889 0.888859,0.757176 0.559652,0.263365 1.250987,0.263365 0.592573,0 1.38267,-0.197524 0.823017,-0.230445 1.613114,-0.49381 0.823018,-0.296287 1.514352,-0.559652 0.691335,-0.263366 1.020542,-0.362128 z M 26.701777,5.8126189 q 0,0.7571761 -0.296286,1.4485109 -0.263366,0.6584141 -0.790097,1.1851453 -0.493811,0.5267313 -1.250987,0.8559383 -0.757176,0.2962863 -1.744797,0.2962863 -2.074005,0 -3.127467,-1.0863832 -1.053463,-1.1193039 -1.053463,-2.6994976 0,-0.6584141 0.263366,-1.3168282 0.296286,-0.658414 0.823018,-1.1851453 0.559652,-0.5596519 1.349748,-0.888859 0.790097,-0.3621277 1.810639,-0.3621277 0.954701,0 1.678956,0.329207 0.757176,0.3292071 1.283907,0.8559383 0.526732,0.5267313 0.790097,1.218066 0.263366,0.6584141 0.263366,1.3497489 z" id="path1027"/>
    </g>
  </g>
</svg>
